<svg width="24" height="24" viewBox="0 0 24 24" fill="none" xmlns="http://www.w3.org/2000/svg">
<g clip-path="url(#clip0_0_125)">
<path d="M19 21H5C4.73478 21 4.48043 20.8928 4.29289 20.7019C4.10536 20.511 4 20.2521 4 19.9821V10.821H1L11.327 1.26502C11.5111 1.0945 11.7511 1 12 1C12.2489 1 12.4889 1.0945 12.673 1.26502L23 10.821H20V19.9821C20 20.2521 19.8946 20.511 19.7071 20.7019C19.5196 20.8928 19.2652 21 19 21ZM6 18.9642H18V8.94505L12 3.39344L6 8.94505V18.9642ZM8 14.8926H16V16.9284H8V14.8926Z" fill="#D1D1D1"/>
</g>
<defs>
<clipPath id="clip0_0_125">
<rect width="24" height="24" fill="white"/>
</clipPath>
</defs>
</svg>
