<svg width="24" height="24" viewBox="0 0 24 24" fill="none" xmlns="http://www.w3.org/2000/svg">
<g clip-path="url(#clip0_0_29)">
<path d="M5 2H19C19.2652 2 19.5196 2.10718 19.7071 2.29795C19.8946 2.48872 20 2.74747 20 3.01726V22.4907C20.0001 22.5817 19.9763 22.671 19.9309 22.7494C19.8855 22.8278 19.8204 22.8923 19.7421 22.9364C19.6639 22.9804 19.5755 23.0023 19.4861 22.9998C19.3968 22.9973 19.3097 22.9704 19.234 22.922L12 18.3067L4.766 22.921C4.69037 22.9694 4.60339 22.9962 4.5141 22.9988C4.42482 23.0013 4.33649 22.9795 4.2583 22.9356C4.1801 22.8917 4.11491 22.8273 4.06948 22.749C4.02406 22.6708 4.00007 22.5816 4 22.4907V3.01726C4 2.74747 4.10536 2.48872 4.29289 2.29795C4.48043 2.10718 4.73478 2 5 2ZM18 4.03453H6V19.7329L12 15.907L18 19.7329V4.03453Z" fill="#D1D1D1"/>
</g>
<defs>
<clipPath id="clip0_0_29">
<rect width="24" height="24" fill="white"/>
</clipPath>
</defs>
</svg>
