<svg xmlns="http://www.w3.org/2000/svg" width="512.001" height="512.001" shape-rendering="geometricPrecision" text-rendering="geometricPrecision" image-rendering="optimizeQuality" fill-rule="evenodd" clip-rule="evenodd" viewBox="0 0 13546.8 13546.8"><path fill-rule="nonzero" d="M6773.46 0c1870 0 3563.57 758.28 4789.32 1984.03 1225.75 1225.74 1984.03 2919.2 1984.03 4789.44 0 1870.24-758.28 3563.69-1984.03 4789.32-1225.62 1225.75-2919.08 1984.02-4789.32 1984.02-1870.24 0-3563.69-758.27-4789.44-1984.02C758.27 10337.05 0 8643.47 0 6773.47c0-1870.24 758.27-3563.69 1984.02-4789.44C3209.76 758.28 4903.22 0 6773.46 0zM4013.02 5609.14h367.83v-1118h1419.57c445.34 0 790.45 115.71 1033.25 347.15 199.99 190.8 318.13 447.99 353.32 770.85h512.32c17.78 0 32.29 15.36 32.29 32.77v501.2c0 17.29-15.24 32.65-32.29 32.65h-529.87c-71.34 402.77-274.6 696.25-609.67 880.89l771.82 1799.74v42.44h-956.7l-662.27-1605.67h-442.19v1605.67h-889.6V6175.76H4013c-16.93 0-32.04-14.63-32.04-32.65v-501.2c0-18.14 14.51-32.77 32.04-32.77zm4870.1 2581.72c0-60.22-28.78-115.36-85.61-165.42-57.68-50.9-184.88-118.74-381.62-205.31-289.95-117.78-489.35-239.06-597.82-365.41-108.58-125.52-162.87-282.47-162.87-469.77 0-235.06 85.73-429.13 255.25-582.7 169.65-153.45 394.31-229.75 674.24-229.75 295.16 0 530.84 76.3 708.1 228.9 177.27 151.75 266.26 357.07 266.26 613.18h-703.02c0-218.86-91.53-328.17-273.88-328.17-74.6 0-135.79 22.85-184.03 69.41-47.52 46.67-71.22 111.24-71.22 194.31 0 59.37 26.24 111.97 78.84 157.67 53.44 45.83 178.11 111.13 375.69 195.04 286.57 106.05 488.5 224.79 607.13 354.53 118.86 129.75 177.26 298.55 177.26 505.43 0 240.87-89.84 433.37-270.49 579.33-180.65 145.82-417.16 218.73-710.64 218.73-196.73 0-370.61-38.21-521.52-115.35-151.03-77.14-268.92-184.88-354.53-322.24-84.88-137.36-127.2-285.85-127.2-444.37h668.19c3.39 122.12 31.44 214.62 85.73 275.57 53.45 61.91 141.6 92.5 264.57 92.5 188.27 0 283.19-85.73 283.19-256.1zM5270.46 5609.14h1006.15c-64.44-249.33-226.35-373.99-485.48-373.99h-520.66v373.99zm1001.92 566.63H5270.46v373.51h505.19c177.74 0 310.99-58.89 399.87-176.66 42.32-56.71 74.6-122.25 96.85-196.85zm4657.27-3558.61C9866.18 1553.68 8396.55 895.77 6773.46 895.77c-1623.21 0-3092.84 657.91-4156.31 1721.39C1553.68 3680.63 895.76 5150.26 895.76 6773.47c0 1623.09 657.92 3092.72 1721.39 4156.19 1063.47 1063.47 2533.1 1721.39 4156.31 1721.39 1623.21 0 3092.84-657.92 4156.19-1721.39 1063.48-1063.35 1721.39-2532.98 1721.39-4156.19 0-1623.21-657.91-3092.84-1721.39-4156.31z"/></svg>