<svg width="18" height="18" viewBox="0 0 18 18" fill="none" xmlns="http://www.w3.org/2000/svg">
<path d="M13.8192 12.6592L17.3332 16.1724L16.1722 17.3334L12.6591 13.8194C11.3519 14.8673 9.72594 15.4372 8.05057 15.4348C3.97457 15.4348 0.666504 12.1268 0.666504 8.05076C0.666504 3.97475 3.97457 0.666687 8.05057 0.666687C12.1266 0.666687 15.4346 3.97475 15.4346 8.05076C15.437 9.72612 14.8671 11.352 13.8192 12.6592ZM12.1733 12.0505C13.2146 10.9797 13.7961 9.54433 13.7937 8.05076C13.7937 4.87725 11.2233 2.30759 8.05057 2.30759C4.87707 2.30759 2.30741 4.87725 2.30741 8.05076C2.30741 11.2234 4.87707 13.7939 8.05057 13.7939C9.54415 13.7963 10.9795 13.2148 12.0503 12.1735L12.1733 12.0505V12.0505Z" fill="#D1D1D1"/>
</svg>
